<?xml version="1.0" encoding="utf-8"?>
<!-- Generator: Adobe Illustrator 27.1.0, SVG Export Plug-In . SVG Version: 6.00 Build 0)  -->
<svg version="1.1" id="Livello_1" xmlns="http://www.w3.org/2000/svg" xmlns:xlink="http://www.w3.org/1999/xlink" x="0px" y="0px"
	 viewBox="0 0 2000 2000" style="enable-background:new 0 0 2000 2000;" xml:space="preserve">
<path d="M1406.9,770c-120.8-140.4-296.6-167.9-470.6-188.9C783.4,562.7,536,544,484.1,365.1c-36.8,132.8-36.9,288.3,86.5,375.7
	c154,109,358.1,41.3,523,119.2c94.8,44.8,159.9,132.7,167.4,238.1c8.1,112.6-68.6,222-173.4,260.1c-47.9,17.4-100.2,22.5-150.5,14.3
	c-112.1-18.3-214.3-103.6-230.7-219.4c-14.5-102.3,46.2-177.6,152.9-161.8c0,0,0.9,4.9,1.4,7.3c9.6,40.7,51.2,82.7,134.9,92
	c57,6.3,109.5-15.3,128.8-61.2c-6.1-50-34.9-86.9-85.5-109.8c-40.7-18.4-86.8-22.9-130.6-27.6c-47.3-5.1-94.9-8.1-142.2-13.4
	c-48.9-5.4-114.5-17.9-161.4-33.2c-161.1,152.2-158.4,426.6-30.5,593.2c171.8,223.8,538.8,258,762,92.3
	c126.6-93.9,196.7-247.8,200.8-403.7C1540.5,998.3,1491.7,868.6,1406.9,770z"/>
</svg>
